<?xml version="1.0" encoding="utf-8"?>
<!-- Generator: Adobe Illustrator 21.0.0, SVG Export Plug-In . SVG Version: 6.00 Build 0)  -->
<svg version="1.1" id="Layer_1" xmlns="http://www.w3.org/2000/svg" xmlns:xlink="http://www.w3.org/1999/xlink" x="0px" y="0px"
	 viewBox="0 0 706 151.6" style="enable-background:new 0 0 706 151.6;" xml:space="preserve">
<style type="text/css">
	.st0{fill:#FFFFFF;}
</style>
<g>
	<g>
		<g>
			<g>
				<path class="st0" d="M20.8,151.6v-44.2H0V0h168.2v108.1h-104L20.8,151.6z M9,98.4h20.8v31.4l30.6-30.6h98.7V9H9V98.4z"/>
			</g>
			<g>
				<rect x="31" y="26.5" class="st0" width="29.1" height="9"/>
			</g>
			<g>
				<rect x="76.4" y="26.5" class="st0" width="60.4" height="9"/>
			</g>
			<g>
				<rect x="31" y="49.7" class="st0" width="69.3" height="9"/>
			</g>
			<g>
				<rect x="116.1" y="49.7" class="st0" width="20.6" height="9"/>
			</g>
			<g>
				<rect x="85.9" y="72.6" class="st0" width="50.8" height="9"/>
			</g>
			<g>
				<rect x="31" y="72.6" class="st0" width="41.3" height="9"/>
			</g>
		</g>
	</g>
	<g>
		<path class="st0" d="M322.5,89.3c-4.9,6.7-10.6,11.5-17.1,14.4c-6.5,2.9-13.5,4.4-21,4.4c-7.8,0-15-1.3-21.5-4
			c-6.5-2.7-12.1-6.4-16.7-11.2c-4.6-4.8-8.3-10.5-10.9-17.1c-2.6-6.6-3.9-13.8-3.9-21.7s1.3-15,3.9-21.6c2.6-6.6,6.2-12.3,10.9-17
			c4.6-4.8,10.2-8.5,16.7-11.2c6.5-2.7,13.7-4.1,21.5-4.1c7,0,13.5,1.2,19.5,3.7c6,2.5,11.3,6.6,15.9,12.4l-7.8,6.5
			c-3.2-4.8-7.3-8.4-12.3-10.6c-5-2.2-10.1-3.3-15.3-3.3c-6.7,0-12.7,1.2-18.1,3.5c-5.4,2.3-9.9,5.5-13.7,9.6
			c-3.8,4.1-6.7,8.8-8.7,14.4c-2,5.5-3,11.5-3,17.8s1,12.3,3,17.8c2,5.5,4.9,10.3,8.7,14.4c3.8,4.1,8.3,7.2,13.7,9.6
			c5.4,2.3,11.4,3.5,18.1,3.5c2.6,0,5.3-0.3,8.1-0.9c2.8-0.6,5.5-1.6,8.2-2.9c2.7-1.3,5.2-2.9,7.6-4.9c2.4-2,4.5-4.4,6.4-7.2
			L322.5,89.3z"/>
		<path class="st0" d="M328.7,71.9c0-5.1,0.9-9.8,2.6-14.1c1.7-4.3,4.2-8,7.2-11.2c3.1-3.1,6.8-5.6,11.2-7.3
			c4.3-1.7,9.1-2.6,14.2-2.6c5.1,0,9.8,0.9,14.1,2.6c4.3,1.7,8,4.2,11.2,7.3c3.1,3.1,5.6,6.9,7.3,11.2c1.7,4.3,2.6,9,2.6,14.1
			c0,5.1-0.9,9.8-2.6,14.1c-1.7,4.3-4.2,8-7.3,11.2c-3.1,3.1-6.9,5.6-11.2,7.3c-4.3,1.7-9,2.6-14.1,2.6c-5.1,0-9.9-0.9-14.2-2.6
			c-4.4-1.7-8.1-4.2-11.2-7.3c-3.1-3.1-5.5-6.9-7.2-11.2C329.6,81.7,328.7,77,328.7,71.9z M337.4,71.9c0,3.8,0.6,7.3,1.8,10.7
			c1.2,3.3,3,6.2,5.3,8.7c2.3,2.5,5.1,4.4,8.4,5.9c3.3,1.4,7,2.2,11,2.2c4.1,0,7.7-0.7,11-2.2c3.3-1.5,6.1-3.4,8.4-5.9
			s4.1-5.4,5.3-8.7c1.2-3.3,1.8-6.9,1.8-10.7c0-3.8-0.6-7.3-1.8-10.7c-1.2-3.3-3-6.2-5.3-8.7s-5.1-4.4-8.4-5.9
			c-3.3-1.5-7-2.2-11-2.2c-4.1,0-7.7,0.7-11,2.2c-3.3,1.4-6.1,3.4-8.4,5.9c-2.3,2.5-4.1,5.4-5.3,8.7C338,64.6,337.4,68.1,337.4,71.9
			z"/>
		<path class="st0" d="M413.5,57.2c0-1.3,0-2.8-0.1-4.6c-0.1-1.8-0.2-3.6-0.2-5.4c0-1.8-0.1-3.6-0.2-5.1c-0.1-1.6-0.1-2.8-0.1-3.7
			h8.7c0.1,2.5,0.2,4.9,0.2,7.2c0,2.3,0.2,3.8,0.4,4.5h0.4c1.7-3.7,4.6-6.8,8.7-9.5c4.1-2.7,8.8-4,14.2-4c5.2,0,9.5,0.8,12.8,2.5
			c3.3,1.6,5.9,3.8,7.8,6.5c1.9,2.7,3.2,5.7,3.9,9.2c0.7,3.5,1.1,7.1,1.1,10.7v39.9h-8.7V65.9c0-2.7-0.2-5.3-0.7-7.9
			c-0.5-2.6-1.3-4.9-2.5-6.9c-1.2-2-2.9-3.6-5.1-4.9c-2.2-1.2-5-1.8-8.5-1.8c-3.2,0-6.2,0.6-9.1,1.7c-2.9,1.1-5.3,2.8-7.4,5.1
			c-2.1,2.3-3.7,5.1-4.9,8.6c-1.2,3.4-1.8,7.5-1.8,12.1v33.5h-8.7V57.2z"/>
		<path class="st0" d="M521.8,46.2h-19.1v43.6c0,3,0.8,5.3,2.5,7c1.6,1.6,3.9,2.5,6.8,2.5c1.6,0,3.3-0.2,5-0.7
			c1.7-0.4,3.3-1,4.9-1.7l0.7,7.8c-1.6,0.6-3.5,1.1-5.7,1.6c-2.1,0.5-4,0.7-5.7,0.7c-3.1,0-5.8-0.5-8-1.4c-2.2-0.9-4-2.1-5.4-3.7
			c-1.4-1.5-2.3-3.4-3-5.4c-0.6-2.1-0.9-4.3-0.9-6.7V46.2h-14.5v-7.8H494V19.1h8.7v19.3h19.1V46.2z"/>
		<path class="st0" d="M591.4,92.8c-3.4,5.1-7.6,8.8-12.5,11c-5,2.2-10.5,3.3-16.5,3.3c-5.1,0-9.8-0.9-13.9-2.6
			c-4.2-1.7-7.7-4.2-10.7-7.3c-3-3.1-5.3-6.9-6.9-11.2c-1.6-4.3-2.4-9.1-2.4-14.3c0-5,0.8-9.7,2.5-13.9c1.6-4.3,4-8,7-11.1
			c3-3.1,6.5-5.6,10.6-7.4c4.1-1.8,8.6-2.7,13.5-2.7c5.1,0,9.6,0.9,13.6,2.7c3.9,1.8,7.2,4.2,9.9,7.1c2.7,3,4.7,6.3,6,10.1
			c1.4,3.8,2,7.6,2,11.5v6.1h-56.3c0,1.8,0.4,4.2,1.1,7c0.7,2.9,2.1,5.6,4,8.3c1.9,2.7,4.5,5,7.8,7c3.2,1.9,7.4,2.9,12.5,2.9
			c4.4,0,8.7-1.1,12.9-3.2c4.2-2.1,7.3-5,9.6-8.7L591.4,92.8z M584.8,66.2c0-3-0.6-5.8-1.8-8.4c-1.2-2.6-2.9-4.9-4.9-6.9
			c-2.1-2-4.5-3.6-7.4-4.7c-2.9-1.2-5.9-1.7-9.1-1.7c-4.7,0-8.7,1-11.8,2.9c-3.1,1.9-5.6,4.2-7.5,6.7c-1.8,2.5-3.1,5-3.9,7.3
			c-0.8,2.4-1.2,4-1.2,4.9H584.8z"/>
		<path class="st0" d="M624.9,69.1L601,38.4h11.2l18.6,25.4l18.4-25.4H660l-23.6,30.7l28.7,36.2h-11.3l-23.3-30.3l-22.9,30.3h-10.4
			L624.9,69.1z"/>
		<path class="st0" d="M705.3,46.2h-19.1v43.6c0,3,0.8,5.3,2.5,7c1.6,1.6,3.9,2.5,6.8,2.5c1.6,0,3.3-0.2,5-0.7
			c1.7-0.4,3.3-1,4.9-1.7l0.7,7.8c-1.6,0.6-3.5,1.1-5.7,1.6c-2.1,0.5-4,0.7-5.7,0.7c-3.1,0-5.8-0.5-8-1.4c-2.2-0.9-4-2.1-5.4-3.7
			c-1.4-1.5-2.3-3.4-3-5.4c-0.6-2.1-0.9-4.3-0.9-6.7V46.2h-14.5v-7.8h14.5V19.1h8.7v19.3h19.1V46.2z"/>
	</g>
</g>
</svg>
