<?xml version="1.0" encoding="utf-8"?>
<!-- Generator: Adobe Illustrator 21.0.0, SVG Export Plug-In . SVG Version: 6.00 Build 0)  -->
<svg version="1.1" id="Layer_1" xmlns="http://www.w3.org/2000/svg" xmlns:xlink="http://www.w3.org/1999/xlink" x="0px" y="0px"
	 viewBox="0 0 689.6 151.3" style="enable-background:new 0 0 689.6 151.3;" xml:space="preserve">
<style type="text/css">
	.st0{fill:#FFFFFF;}
</style>
<g>
	<path class="st0" d="M292.8,101.8c-4,1.6-7.8,2.7-11.5,3.2c-3.7,0.5-7.7,0.8-12.2,0.8c-8.1,0-15.2-1.3-21.3-3.9
		c-6.1-2.6-11.2-6.2-15.2-10.8c-4-4.6-7.1-10.1-9.1-16.5c-2-6.4-3.1-13.4-3.1-21c0-7.6,1-14.7,3.1-21.1c2.1-6.5,5.2-12,9.2-16.7
		c4-4.7,9.1-8.3,15.1-10.9c6-2.6,12.9-3.9,20.6-3.9c4.5,0,8.5,0.4,12.1,1.3c3.6,0.9,7.1,2,10.6,3.6l-5.9,19c-1.9-0.9-4-1.6-6.4-2.3
		c-2.3-0.7-5.1-1-8.4-1c-16.9,0-25.4,10.7-25.4,32.1c0,10.8,2.2,18.7,6.6,23.8c4.4,5.1,11.1,7.7,20.3,7.7c3,0,5.7-0.2,8.1-0.6
		c2.3-0.4,4.6-1.1,6.9-1.9L292.8,101.8z"/>
	<path class="st0" d="M326.3,28.8c4.9,0,9.6,0.7,13.9,2.1c4.3,1.4,8,3.6,11.1,6.6c3.1,3,5.5,7,7.3,11.9c1.8,4.9,2.6,10.7,2.6,17.6
		c0,6.9-0.9,12.7-2.6,17.6c-1.8,4.9-4.2,8.8-7.3,11.9c-3.1,3-6.8,5.3-11.1,6.6c-4.3,1.4-8.9,2.1-13.9,2.1c-5,0-9.7-0.7-13.9-2.1
		c-4.2-1.4-7.9-3.6-11-6.6c-3.1-3-5.5-7-7.3-11.9c-1.8-4.9-2.6-10.7-2.6-17.6c0-6.8,0.9-12.5,2.6-17.4c1.8-4.8,4.2-8.8,7.3-11.9
		c3.1-3.1,6.8-5.4,11-6.8C316.7,29.6,321.3,28.8,326.3,28.8z M326.3,86.4c4.3,0,7.6-1.4,10.1-4.3c2.4-2.9,3.6-7.9,3.6-15.1
		c0-7.2-1.2-12.3-3.6-15.2c-2.4-2.9-5.8-4.4-10.1-4.4c-4.2,0-7.5,1.5-10.1,4.5c-2.5,3-3.8,8-3.8,15.1c0,7.2,1.2,12.3,3.7,15.1
		C318.7,85,322.1,86.4,326.3,86.4z"/>
	<path class="st0" d="M374.8,47.4h-12l9.4-17.7h20.7l1.9,8c2.4-2.6,5.2-4.7,8.5-6.4c3.3-1.7,7.1-2.6,11.4-2.6
		c8.7,0,15.1,2.3,19.3,6.9c4.2,4.6,6.3,11.9,6.3,21.9v46.7h-21.7v-43c0-4.4-1.1-7.5-3.2-9.4c-2.1-1.9-4.9-2.9-8.2-2.9
		c-2.8,0-5.2,0.9-7.4,2.8c-2.2,1.9-3.3,4.9-3.3,9.2v43.3h-21.6V47.4z"/>
	<path class="st0" d="M458,47.5h-8.9v-18h8.9V9.3h21.4v20.3h17.7l-10,18h-8.4l0.7,4.6v22.4c0,2.5,0.2,4.5,0.5,6
		c0.3,1.5,0.9,2.7,1.6,3.6c0.7,0.9,1.6,1.5,2.7,1.8c1.1,0.3,2.4,0.5,3.8,0.5c1,0,2.3-0.1,3.9-0.4c1.5-0.2,3.1-0.5,4.9-0.8l1.1,9.6
		l0.9,8.6c-2.8,0.6-5.3,1-7.6,1.3c-2.3,0.3-4.6,0.4-7,0.4c-8.9,0-15.4-2-19.7-6.1c-4.3-4.1-6.4-10.9-6.4-20.3V47.5z"/>
	<path class="st0" d="M535.8,28.8c4.9,0,9.4,0.7,13.4,2.1c4,1.4,7.3,3.6,9.9,6.7c2.7,3.1,4.7,7.1,6.1,11.9
		c1.4,4.9,2.1,10.7,2.1,17.6c0,0.7,0,1.4,0,2.2c0,0.8-0.1,2.3-0.3,4.5h-40l-3-0.4c0.1,2.8,0.4,5,0.9,6.6c0.5,1.7,1.3,3,2.3,3.9
		c1,1,2.2,1.6,3.6,2c1.4,0.4,3,0.6,4.9,0.7c3,0.2,5.5-0.2,7.6-1.3c2.1-1,4.2-3.2,6.1-6.4c3,1,5.7,1.9,8.1,2.7c2.1,0.8,4,1.4,5.7,2
		s2.6,0.8,2.6,0.7c-3.4,7.1-7.6,12.4-12.5,15.6c-4.9,3.3-10.8,4.9-17.6,4.9c-5,0-9.6-0.7-13.7-2c-4.1-1.3-7.6-3.5-10.4-6.5
		c-2.9-3-5.1-6.9-6.6-11.7c-1.6-4.8-2.4-10.7-2.4-17.6c0-6.8,0.8-12.5,2.4-17.4c1.6-4.8,3.8-8.8,6.6-11.9c2.9-3.1,6.3-5.4,10.4-6.9
		C526.2,29.6,530.8,28.8,535.8,28.8z M543.7,57.5l2.1,0.3c-0.2-3.4-1.1-6-2.6-7.9c-1.6-1.9-4-2.8-7.4-2.8c-3.8,0-6.5,0.9-8.2,2.8
		c-1.7,1.9-2.7,4.5-3.1,7.9c0.5-0.1,0.9-0.2,1.3-0.2c0.4,0,0.8-0.1,1.3-0.1H543.7z"/>
	<path class="st0" d="M566.8,104.2L590,65.8c-1-1.7-2.1-3.6-3.3-5.6c-1-1.7-2.2-3.7-3.4-5.9c-1.2-2.2-2.5-4.4-3.9-6.7
		c-3.1-5.2-6.7-11.3-10.7-18.1H593l11.4,18.7l10.9-18.7l25.3,0.1l-22.1,36.1l22.8,38.4h-23.6l-13.3-23.1l-14.6,23.1H566.8z"/>
	<path class="st0" d="M648.9,47.5h-8.9v-18h8.9V9.3h21.4v20.3h17.7l-10,18h-8.4l0.7,4.6v22.4c0,2.5,0.2,4.5,0.5,6
		c0.3,1.5,0.9,2.7,1.6,3.6c0.7,0.9,1.6,1.5,2.7,1.8c1.1,0.3,2.4,0.5,3.8,0.5c1,0,2.3-0.1,3.9-0.4c1.5-0.2,3.1-0.5,4.9-0.8l1.1,9.6
		l0.9,8.6c-2.8,0.6-5.3,1-7.6,1.3c-2.3,0.3-4.6,0.4-7,0.4c-8.9,0-15.4-2-19.7-6.1c-4.3-4.1-6.4-10.9-6.4-20.3V47.5z"/>
</g>
<g>
	<path class="st0" d="M21,151.3v-43.8H0V0h168.9v108.2H64.1L21,151.3z M8,99.4h21v32.5l31.8-31.8h100.1V8H8V99.4z"/>
	<rect x="30.8" y="26.8" class="st0" width="29.4" height="8"/>
	<rect x="76.6" y="26.8" class="st0" width="61.1" height="8"/>
	<rect x="30.8" y="50.3" class="st0" width="70" height="8"/>
	<rect x="116.8" y="50.3" class="st0" width="20.9" height="8"/>
	<rect x="86.3" y="73.4" class="st0" width="51.4" height="8"/>
	<rect x="30.8" y="73.4" class="st0" width="41.7" height="8"/>
</g>
</svg>
