<?xml version="1.0" encoding="utf-8"?>
<!-- Generator: Adobe Illustrator 21.0.0, SVG Export Plug-In . SVG Version: 6.00 Build 0)  -->
<svg version="1.1" id="Layer_1" xmlns="http://www.w3.org/2000/svg" xmlns:xlink="http://www.w3.org/1999/xlink" x="0px" y="0px"
	 viewBox="0 0 160.4 160.4" style="enable-background:new 0 0 160.4 160.4;" xml:space="preserve">
<style type="text/css">
	.st0{fill:url(#SVGID_1_);}
	.st1{fill:#FFFFFF;}
</style>
<g>
	<linearGradient id="SVGID_1_" gradientUnits="userSpaceOnUse" x1="80.1827" y1="0" x2="80.1827" y2="160.3653">
		<stop  offset="0" style="stop-color:#00C1FF"/>
		<stop  offset="0.3064" style="stop-color:#00BAFF"/>
		<stop  offset="0.764" style="stop-color:#00A5FF"/>
		<stop  offset="1" style="stop-color:#0098FF"/>
	</linearGradient>
	<path class="st0" d="M120.5,160.4H39.9c-22,0-39.9-17.9-39.9-39.9V39.9C0,17.9,17.9,0,39.9,0h80.6c22,0,39.9,17.9,39.9,39.9v80.6
		C160.4,142.5,142.5,160.4,120.5,160.4z"/>
	<g>
		<g>
			<path class="st1" d="M41.9,131.9v-26.7H29.2V40.1h101.9v65.5h-63L41.9,131.9z M34.7,99.7h12.6v19l18.6-18.6h59.8V45.6H34.7V99.7z
				"/>
		</g>
		<g>
			<rect x="48" y="56.2" class="st1" width="17.6" height="5.5"/>
		</g>
		<g>
			<rect x="75.5" y="56.2" class="st1" width="36.6" height="5.5"/>
		</g>
		<g>
			<rect x="48" y="70.3" class="st1" width="42" height="5.5"/>
		</g>
		<g>
			<rect x="99.6" y="70.3" class="st1" width="12.5" height="5.5"/>
		</g>
		<g>
			<rect x="81.3" y="84.1" class="st1" width="30.8" height="5.5"/>
		</g>
		<g>
			<rect x="48" y="84.1" class="st1" width="25" height="5.5"/>
		</g>
	</g>
</g>
</svg>
